<svg width="596" height="842" viewBox="0 0 596 842" fill="none" xmlns="http://www.w3.org/2000/svg">
  <g id="branche-gauche">
    <path d="M108.83 155.14C108.83 155.14 158.18 149.57 163.76 146.38C169.34 143.19 174.9 138.42 183.26 136.83C191.62 135.24 247.74 125.69 247.74 125.69C247.74 125.69 254.9 123.7 265.25 131.26C275.6 138.82 298.29 163.1 304.65 162.31C311.02 161.51 314.2 152.76 312.21 148.78C310.22 144.8 271.54 116.03 264.85 114.15C255.32 111.47 242.96 111.76 227.83 114.15C212.71 116.54 111.61 137.49 111.61 137.49C111.61 137.49 98.48 143.61 108.82 155.15L108.83 155.14Z" fill="#FFFFFF" stroke="#1D1D1B" stroke-width="0.5" stroke-miterlimit="10"/>
    <g style="mix-blend-mode:multiply">
      <path d="M308.24 150.76C308.24 150.76 307.93 156.91 304.26 156.33C299.29 155.55 268.44 122.5 258.09 124.09C258.09 124.09 266.62 126.8 276.55 135.73C283.06 141.59 310.97 173.58 308.24 150.76Z" fill="#706F6F"/>
    </g>
  </g>

  <g id="branche-droite">
    <path d="M374.79 179.65L465.33 149.87C465.33 149.87 487.46 144.24 490.68 145.85C493.9 147.46 508.39 176.43 508.39 179.65C508.39 182.87 505.97 193.66 502.76 194.54C500.43 195.18 497.43 194.65 495.92 190.33C494.51 186.31 489.08 158.6 483.45 158.86C477.82 159.12 432.75 174.81 432.75 174.81C432.75 174.81 419.47 181.25 413.84 186.08C408.21 190.91 381.65 197.35 381.65 197.35C381.65 197.35 371.99 189.7 374.81 179.64L374.79 179.65Z" fill="#FFFFFF" stroke="#1D1D1B" stroke-width="0.5" stroke-miterlimit="10"/>
    <g style="mix-blend-mode:multiply">
      <path d="M381.34 180.1C381.34 180.1 483.61 144.91 489.19 148.11C489.19 148.11 470.99 150.6 447.43 159.99C423.87 169.38 381.34 182.02 381.34 182.02V180.1Z" fill="#706F6F"/>
    </g>
    <g style="mix-blend-mode:multiply">
      <path d="M485.36 158.06C485.36 158.06 488.62 158.06 490.34 161.51C492.06 164.96 500.11 186.22 500.11 186.22C500.11 186.22 500.88 191.2 505.28 183.54C505.28 183.54 502.21 193.1 499.92 190.33C497.63 187.56 490.15 164 490.15 164C490.15 164 487.28 157.26 485.36 158.06Z" fill="#706F6F"/>
    </g>
  </g>

  <g id="monture">
    <path d="M385.31 180.81C385.07 177.4 375.74 175.59 372.6 174.41C369.46 173.23 356.9 176.37 356.9 176.37C344.73 173.23 302.35 167.34 278.02 167.34C253.69 167.34 245.45 178.72 242.7 178.33C239.95 177.94 225.43 177.55 219.15 176.37C212.87 175.19 214.05 162.24 179.9 149.89C145.76 137.54 111.61 137.47 111.61 137.47C98.26 142.13 104.85 155.96 104.85 155.96L106.9 162.31C111.22 164.34 110.04 172.83 111.61 185.39C113.18 197.95 119.07 214.04 125.74 223.85C132.41 233.66 157.53 244.65 170.09 245.04C182.65 245.43 193.64 243.08 201.88 229.73C210.12 216.39 218.76 192.84 218.76 192.84L228.96 194.41C228.96 194.41 231.87 194.72 234.31 197.5C236.75 200.28 238.74 205.53 241.91 214.81C249.47 236.91 267.03 254.06 267.03 254.06C267.03 254.06 272.63 261.49 300.47 266.72C323.55 271.06 343.17 264.26 343.17 264.26C360.89 257.09 364.8 219.3 364.8 219.3C364.8 219.3 366.63 206 372.61 202.65C379.98 198.51 380.88 198.21 385.32 197.33C388.93 196.62 385.56 184.2 385.32 180.79L385.31 180.81ZM190.5 231.32C181.08 236.42 158.32 238.38 144.19 227.4C130.06 216.41 123.39 197.18 121.43 174.42C119.47 151.66 128.53 149.19 128.53 149.19C128.53 149.19 143.41 148.52 162.64 153.22C181.87 157.93 203.06 171.27 203.46 179.91C203.85 188.54 199.93 226.22 190.51 231.32H190.5ZM344.73 255.65C335.7 259.97 323.26 260.36 312.8 259.57C302.34 258.79 275.26 258 265.45 228.17C265.45 228.17 262.7 214.04 260.35 210.9C258 207.76 250.93 196.42 250.93 192.47C250.93 184.24 258.08 179.5 258.08 179.5C258.08 179.5 266.24 174.4 276.83 174.4C287.43 174.4 341.58 177.15 349.04 187.35C356.5 197.55 356.1 209.33 357.28 218.75C358.46 228.17 353.75 251.32 344.72 255.64L344.73 255.65Z" fill="#FFFFFF" stroke="#1D1D1B" stroke-width="0.5" stroke-miterlimit="10"/>
    <g clip-path="url(#clip0_4_405)">
      <path d="M365.147 190.397C365.085 190.673 365.012 190.932 365.015 191.201C365.017 191.419 365.09 191.469 365.296 191.382C365.673 191.222 365.984 190.966 366.292 190.71C366.761 190.318 367.208 189.903 367.654 189.486C367.826 189.326 367.834 189.116 367.873 188.918C368.08 187.865 368.3 186.813 368.442 185.749C368.476 185.498 368.479 185.243 368.49 184.99C368.496 184.865 368.457 184.721 368.641 184.687C368.825 184.654 368.985 184.699 369.084 184.866C369.191 185.047 369.165 185.247 369.13 185.434C368.856 186.862 368.565 188.286 368.296 189.715C368.152 190.481 367.996 191.247 367.947 192.026C367.939 192.159 367.881 192.356 368.036 192.409C368.207 192.468 368.276 192.263 368.358 192.154C368.681 191.727 368.899 191.239 369.149 190.772C370.077 189.043 370.978 187.3 371.917 185.576C372.602 184.317 373.374 183.108 374.339 182.026C374.42 181.935 374.492 181.836 374.611 181.787C374.731 181.738 374.851 181.711 374.947 181.83C375.039 181.943 374.985 182.043 374.908 182.137C374.686 182.41 374.456 182.676 374.243 182.955C373.097 184.458 372.186 186.097 371.333 187.769C370.695 189.02 370.079 190.281 369.4 191.512C369.192 191.889 368.971 192.258 368.686 192.588C368.575 192.717 368.446 192.827 368.302 192.919C367.974 193.13 367.682 193.052 367.51 192.703C367.349 192.376 367.36 192.027 367.404 191.681C367.454 191.291 367.525 190.904 367.585 190.515C367.593 190.465 367.586 190.413 367.586 190.312C367.367 190.493 367.181 190.647 366.995 190.799C366.579 191.138 366.166 191.482 365.69 191.742C365.516 191.837 365.337 191.919 365.131 191.932C364.782 191.955 364.565 191.782 364.495 191.443C364.444 191.194 364.483 190.951 364.517 190.707C364.538 190.565 364.574 190.425 364.609 190.258C364.145 190.77 363.715 191.275 363.212 191.711C363.015 191.882 362.803 192.03 362.557 192.123C362.292 192.223 362.024 192.222 361.797 192.042C361.574 191.864 361.544 191.606 361.587 191.345C361.683 190.771 361.967 190.276 362.299 189.804C362.7 189.233 363.152 188.705 363.752 188.317C364.141 188.065 364.559 187.913 365.034 188.049C365.124 188.075 365.216 188.118 365.289 188.175C365.398 188.26 365.496 188.326 365.652 188.324C365.82 188.322 365.865 188.464 365.831 188.6C365.796 188.742 365.737 188.879 365.673 189.012C365.46 189.454 365.281 189.908 365.147 190.397ZM362.453 190.525C362.314 190.779 362.196 191.041 362.145 191.328C362.126 191.434 362.141 191.526 362.226 191.602C362.321 191.686 362.408 191.626 362.491 191.586C362.64 191.515 362.767 191.412 362.89 191.305C363.311 190.938 363.682 190.526 364.039 190.102C364.347 189.735 364.646 189.361 364.924 188.971C365.006 188.857 365.028 188.734 364.957 188.613C364.884 188.49 364.753 188.492 364.627 188.509C364.432 188.536 364.26 188.621 364.099 188.722C363.388 189.169 362.888 189.8 362.453 190.525Z" fill="#000000"/>
      <path d="M371.792 190.984C371.791 190.474 371.963 190.021 372.132 189.571C372.331 189.043 372.582 188.538 372.893 188.063C372.956 187.966 373.018 187.868 373.12 187.807C373.231 187.741 373.362 187.702 373.457 187.816C373.551 187.929 373.639 188.07 373.514 188.214C373.02 188.783 372.765 189.469 372.506 190.151C372.414 190.393 372.355 190.65 372.357 190.913C372.359 191.179 372.471 191.248 372.7 191.101C373.111 190.839 373.439 190.485 373.761 190.129C374.321 189.511 374.824 188.853 375.271 188.153C375.307 188.097 375.348 188.041 375.399 187.998C375.509 187.905 375.634 187.858 375.778 187.924C375.92 187.989 375.905 188.115 375.903 188.236C375.901 188.34 375.852 188.429 375.81 188.52C375.543 189.114 375.288 189.713 375.185 190.358C375.15 190.579 375.083 190.826 375.308 190.99C375.521 191.145 375.723 190.991 375.902 190.902C376.457 190.625 376.914 190.215 377.38 189.821C377.467 189.748 377.487 189.637 377.523 189.536C377.815 188.719 378.267 188.006 378.966 187.456C379.143 187.316 379.343 187.216 379.566 187.155C380.133 187.001 380.544 187.365 380.463 187.946C380.39 188.459 380.067 188.833 379.675 189.153C379.24 189.506 378.755 189.786 378.249 190.027C378.042 190.126 377.943 190.259 377.965 190.483C377.988 190.718 378.071 190.91 378.318 190.999C378.583 191.096 378.847 191.051 379.107 190.985C379.796 190.809 380.387 190.441 380.971 190.065C381.55 189.692 382.106 189.288 382.615 188.827C382.668 188.779 382.717 188.707 382.807 188.744C382.899 188.781 382.934 188.86 382.951 188.95C382.98 189.109 382.889 189.215 382.784 189.317C382.201 189.881 381.53 190.335 380.839 190.761C380.333 191.073 379.807 191.346 379.227 191.508C378.927 191.591 378.626 191.632 378.314 191.562C377.86 191.459 377.554 191.21 377.43 190.763C377.408 190.681 377.415 190.589 377.342 190.506C377.132 190.621 376.965 190.791 376.773 190.928C376.395 191.196 376.02 191.465 375.539 191.539C375.035 191.617 374.662 191.324 374.638 190.825C374.624 190.525 374.653 190.228 374.697 189.919C374.576 189.924 374.545 190.005 374.496 190.063C374.063 190.573 373.631 191.084 373.073 191.476C372.938 191.57 372.795 191.649 372.636 191.696C372.214 191.823 371.916 191.658 371.817 191.241C371.799 191.164 371.8 191.082 371.792 190.984ZM378.507 189.341C378.834 189.167 379.132 188.951 379.402 188.704C379.638 188.488 379.849 188.246 379.913 187.923C379.958 187.697 379.845 187.606 379.619 187.677C379.513 187.711 379.421 187.771 379.335 187.838C378.843 188.225 378.501 188.719 378.252 189.279C378.231 189.324 378.195 189.375 378.242 189.433C378.34 189.466 378.404 189.39 378.507 189.341Z" fill="#000000"/>
      <path d="M366.974 183.527C365.926 183.715 364.896 183.9 363.865 184.084C363.67 184.119 363.475 184.159 363.279 184.187C363.067 184.217 362.923 184.315 362.812 184.5C362.345 185.274 361.95 186.082 361.585 186.904C360.664 188.977 359.851 191.09 359.127 193.236C359.091 193.343 359.045 193.448 359.001 193.553C358.953 193.664 358.878 193.729 358.744 193.688C358.618 193.649 358.519 193.594 358.518 193.442C358.518 193.32 358.53 193.203 358.569 193.087C359.303 190.895 360.164 188.75 361.095 186.63C361.379 185.986 361.678 185.347 361.993 184.716C362.031 184.639 362.063 184.558 362.108 184.457C361.815 184.432 361.554 184.509 361.293 184.561C359.47 184.925 357.668 185.361 355.929 186.016C355.82 186.057 355.71 186.098 355.598 186.014C355.42 185.879 355.448 185.665 355.667 185.573C356.394 185.27 357.145 185.037 357.909 184.842C359.811 184.355 361.721 183.901 363.659 183.571C364.953 183.35 366.252 183.154 367.55 182.959C367.84 182.916 368.137 182.895 368.433 182.911C368.509 182.915 368.584 182.918 368.653 182.953C368.744 183 368.81 183.07 368.799 183.175C368.789 183.272 368.705 183.298 368.619 183.308C368.211 183.359 367.804 183.408 367.397 183.46C367.261 183.477 367.126 183.502 366.974 183.527Z" fill="#000000"/>
    </g>
    <ellipse cx="367.542" cy="195.579" rx="0.432846" ry="0.421123" fill="#000091"/>
    <ellipse cx="370.056" cy="195.579" rx="0.432846" ry="0.421123" fill="#E1000F"/>
    <ellipse cx="368.82" cy="195.579" rx="0.432846" ry="0.421123" fill="#FFFFFF"/>
  </g>

  <g id="pont">
    <rect x="246" y="205" width="28" height="12" rx="3" fill="#FFFFFF" opacity="0.001"/>
  </g>

  <g id="verres">
    <g id="verre-gauche">
      <path d="M116.32 162.87C115.44 168.92 116.72 200.28 127.76 218.18C138.8 236.08 164.8 239.53 169.13 239.49C173.46 239.45 187.64 240.51 193.6 230.22C198.57 221.63 206.77 186.74 202.72 177.17C196.46 162.35 162.32 153.15 162.32 153.15C162.32 153.15 135.47 147.69 128.5 148.69C128.5 148.69 118.53 147.73 116.33 162.86L116.32 162.87Z" fill="#D9D9D9" opacity="0.25"/>
    </g>
    <g id="verre-droit">
      <path d="M247.32 192.54C247.32 192.54 246.23 182.99 266.89 175.85C278.65 171.79 327.35 179.08 327.35 179.08C327.35 179.08 346.44 183.14 349.06 187.36C351.68 191.58 358.52 204.6 357.35 225.33C356.21 245.54 350.04 252.13 344.74 255.64C344.74 255.64 337.64 260.57 323.4 261.57C296.75 263.45 286.39 260.43 277.21 253.84C247.33 232.38 247.33 192.54 247.33 192.54L247.32 192.54Z" fill="#D9D9D9" opacity="0.25"/>
    </g>
  </g>

  <g id="logo-emblem" transform="translate(306 150) scale(0.22)">
    <path d="M40.9929 34.4552C40.7645 35.4693 40.4958 36.416 40.5065 37.4053C40.5151 38.2021 40.782 38.3857 41.5402 38.0659C42.9259 37.4814 44.0707 36.543 45.2005 35.6032C46.9262 34.1676 48.5713 32.6449 50.2116 31.1173C50.8442 30.5282 50.8723 29.7575 51.0158 29.0318C51.7792 25.1701 52.5848 21.3144 53.1103 17.413C53.2341 16.4931 53.2435 15.5578 53.286 14.6288C53.3069 14.1723 53.164 13.6437 53.8402 13.5207C54.5182 13.3973 55.1049 13.5648 55.4687 14.1758C55.8626 14.8374 55.7692 15.5737 55.6373 16.2599C54.6318 21.4943 53.5622 26.7171 52.5727 31.9542C52.042 34.7631 51.4682 37.5711 51.2882 40.4301C51.2576 40.9163 51.0464 41.637 51.6141 41.8317C52.2455 42.0483 52.4966 41.2989 52.8 40.898C53.9861 39.3307 54.7876 37.5448 55.7092 35.8316C59.1205 29.49 62.436 23.0995 65.8869 16.7784C68.4077 12.161 71.2474 7.72927 74.7941 3.76279C75.0914 3.43022 75.3554 3.06387 75.7942 2.88551C76.2364 2.70576 76.6771 2.60831 77.03 3.0418C77.3672 3.45607 77.1689 3.82381 76.8862 4.17022C76.0711 5.16918 75.2241 6.14508 74.442 7.1677C70.2256 12.6806 66.8758 18.6897 63.7389 24.8198C61.3926 29.405 59.1289 34.0307 56.6318 38.5424C55.8663 39.9254 55.0535 41.279 54.0068 42.4879C53.596 42.9624 53.1234 43.3644 52.5948 43.7031C51.3875 44.4764 50.3129 44.1904 49.6811 42.9098C49.0903 41.7122 49.1297 40.4314 49.2915 39.1629C49.4737 37.7334 49.7374 36.3137 49.9569 34.8885C49.9852 34.7051 49.9608 34.5141 49.9608 34.1453C49.1545 34.807 48.4727 35.3708 47.7862 35.9292C46.2569 37.1731 44.7404 38.4349 42.9883 39.3868C42.3477 39.7348 41.689 40.0363 40.9342 40.0852C39.6491 40.1684 38.8515 39.5357 38.5951 38.2898C38.4072 37.3764 38.548 36.4863 38.6763 35.5923C38.751 35.0719 38.8851 34.5596 39.0128 33.9453C37.3052 35.8232 35.7267 37.674 33.8741 39.2752C33.1517 39.8995 32.3732 40.4426 31.4682 40.7829C30.4925 41.1499 29.5053 41.1487 28.6733 40.4878C27.8511 39.8345 27.7407 38.8891 27.9015 37.931C28.2547 35.8265 29.2974 34.0107 30.5167 32.2817C31.9939 30.1868 33.6563 28.2522 35.86 26.83C37.2911 25.9065 38.828 25.3474 40.5767 25.8473C40.9087 25.9422 41.2443 26.1011 41.5135 26.3092C41.915 26.6198 42.2751 26.8628 42.8496 26.855C43.4669 26.8467 43.6302 27.3683 43.5068 27.8674C43.3785 28.3862 43.1602 28.8911 42.9254 29.3766C42.1408 30.9987 41.4827 32.6642 40.9929 34.4552ZM31.0855 34.9249C30.5726 35.8573 30.1395 36.8177 29.952 37.8691C29.8828 38.2574 29.9368 38.5959 30.2515 38.8739C30.6002 39.1821 30.9175 38.9607 31.225 38.8149C31.7736 38.5549 32.239 38.1787 32.6924 37.7845C34.2395 36.4395 35.6051 34.9303 36.9158 33.3745C38.0497 32.0285 39.1504 30.6561 40.1731 29.2268C40.4731 28.8077 40.5535 28.3572 40.292 27.916C40.0235 27.4627 39.5445 27.4694 39.0789 27.5328C38.3632 27.6304 37.7312 27.9426 37.1363 28.3156C34.5239 29.9534 32.6858 32.2669 31.0855 34.9249Z" fill="#000000"/>
    <path d="M65.4305 36.6069C65.4245 34.7371 66.0582 33.077 66.6803 31.4263C67.4096 29.4913 68.3348 27.64 69.4784 25.8972C69.7101 25.5441 69.9378 25.1821 70.3122 24.9604C70.7215 24.7181 71.202 24.5757 71.5506 24.9911C71.8988 25.406 72.2195 25.9255 71.7603 26.4527C69.9449 28.537 69.0076 31.0523 68.0536 33.5529C67.7142 34.4423 67.4998 35.3826 67.506 36.3498C67.5122 37.3243 67.9254 37.5762 68.7682 37.0389C70.28 36.075 71.4835 34.778 72.6704 33.473C74.7292 31.2092 76.5793 28.794 78.2224 26.2294C78.3544 26.0234 78.5067 25.8168 78.6933 25.6592C79.0958 25.3192 79.5569 25.1472 80.0868 25.3882C80.6101 25.6263 80.5536 26.0897 80.5457 26.532C80.5389 26.9124 80.3578 27.2403 80.2063 27.5754C79.222 29.7524 78.2851 31.9473 77.9059 34.3148C77.7764 35.1228 77.5324 36.0284 78.3595 36.6301C79.14 37.1979 79.8858 36.6355 80.5445 36.307C82.5828 35.2904 84.2647 33.7905 85.9792 32.3438C86.2971 32.0755 86.3721 31.6692 86.5043 31.2999C87.5774 28.302 89.2417 25.6881 91.8095 23.6706C92.462 23.1579 93.1974 22.7916 94.0159 22.5699C96.1008 22.0051 97.6138 23.3384 97.3138 25.4693C97.0488 27.3509 95.8608 28.7214 94.4164 29.8943C92.8199 31.1908 91.035 32.2146 89.1723 33.0995C88.411 33.4612 88.0478 33.9502 88.1288 34.7701C88.2141 35.6333 88.52 36.3366 89.4263 36.6649C90.4016 37.0182 91.3728 36.8548 92.3287 36.6118C94.8623 35.9676 97.036 34.6171 99.1847 33.237C101.313 31.8701 103.356 30.3909 105.229 28.7C105.425 28.5231 105.605 28.2598 105.936 28.3946C106.273 28.5311 106.404 28.8216 106.465 29.1491C106.572 29.732 106.237 30.1212 105.85 30.4946C103.705 32.5639 101.241 34.2271 98.6999 35.7909C96.8391 36.9362 94.9035 37.9365 92.7708 38.5292C91.6685 38.8355 90.5616 38.9852 89.4138 38.726C87.743 38.3488 86.6191 37.4387 86.1627 35.7985C86.0794 35.4991 86.1083 35.1583 85.8379 34.8572C85.0674 35.2789 84.4528 35.9023 83.746 36.4024C82.3563 37.3855 80.9785 38.3721 79.2077 38.6445C77.3558 38.9293 75.9811 37.8558 75.8946 36.0252C75.8427 34.9266 75.9479 33.8362 76.1115 32.7051C75.667 32.7201 75.5526 33.0203 75.3739 33.2299C73.7798 35.1006 72.1919 36.9765 70.1397 38.4121C69.6445 38.7584 69.1182 39.0453 68.5334 39.2201C66.9816 39.684 65.8856 39.0808 65.5206 37.5492C65.4533 37.2667 65.4591 36.9677 65.4305 36.6069ZM90.1225 30.5836C91.3255 29.9452 92.4218 29.1551 93.4151 28.2485C94.2821 27.457 95.0579 26.5685 95.2947 25.383C95.4603 24.5543 95.0421 24.2233 94.2109 24.4838C93.8219 24.6057 93.4849 24.8264 93.1693 25.0736C91.3586 26.4915 90.102 28.3051 89.184 30.3562C89.1092 30.5233 88.9751 30.7085 89.1491 30.9206C89.5076 31.0439 89.7434 30.7636 90.1225 30.5836Z" fill="#000000"/>
    <path d="M47.7109 9.26463C43.8575 9.95511 40.0682 10.6315 36.2788 11.3075C35.5605 11.4356 34.8448 11.5824 34.1224 11.6842C33.3432 11.794 32.8158 12.1552 32.4048 12.8346C30.6882 15.6718 29.2363 18.6352 27.8939 21.6482C24.5075 29.249 21.5157 36.9959 18.8548 44.8634C18.7214 45.2579 18.553 45.6418 18.3902 46.0263C18.2166 46.4361 17.9377 46.6717 17.4459 46.5216C16.9841 46.3806 16.6199 46.1769 16.6164 45.6197C16.6137 45.1737 16.6587 44.7447 16.8016 44.3194C19.5035 36.2818 22.6669 28.4147 26.0936 20.6449C27.1365 18.2802 28.2348 15.9399 29.3936 13.6264C29.5356 13.3429 29.6523 13.0474 29.8169 12.6761C28.7414 12.5848 27.7787 12.8667 26.8182 13.0578C20.1171 14.3913 13.4906 15.9903 7.09503 18.3903C6.69247 18.5414 6.28971 18.6928 5.87805 18.3833C5.22204 17.8902 5.32594 17.1044 6.13122 16.769C8.80274 15.6561 11.5672 14.8023 14.3751 14.0863C21.3692 12.3029 28.3933 10.6364 35.5197 9.42519C40.2791 8.61629 45.0556 7.89931 49.8313 7.18433C50.8975 7.02471 51.9866 6.9468 53.0757 7.00516C53.3561 7.02018 53.6314 7.03307 53.8841 7.16259C54.2195 7.3346 54.4633 7.59059 54.4235 7.97369C54.3866 8.32876 54.0753 8.42462 53.7598 8.46382C52.2621 8.64993 50.7632 8.82795 49.266 9.01806C48.7671 9.08141 48.2719 9.17217 47.7109 9.26463Z" fill="#000000"/>
    <ellipse cx="49.7993" cy="53.456" rx="1.59176" ry="1.54412" fill="#000091"/>
    <ellipse cx="59.0466" cy="53.456" rx="1.59176" ry="1.54412" fill="#E1000F"/>
    <ellipse cx="54.4987" cy="53.456" rx="1.59176" ry="1.54412" fill="#FFFFFF"/>
  </g>

  <text id="gravure" x="430" y="195" font-family="ui-sans-serif" font-size="10" fill="#111111" opacity="0"></text>

  <defs>
    <clipPath id="clip0_4_405">
      <rect width="31" height="12.8342" fill="#FFFFFF" transform="translate(354 181)"/>
    </clipPath>
  </defs>
</svg>
