<svg width="752" height="374" viewBox="0 0 752 374" fill="none" xmlns="http://www.w3.org/2000/svg">
<path d="M270.41 234.295C268.903 241.191 267.131 247.628 267.201 254.356C267.258 259.774 269.019 261.022 274.02 258.848C283.161 254.874 290.712 248.492 298.165 242.101C309.549 232.34 320.4 221.985 331.221 211.598C335.394 207.592 335.58 202.351 336.526 197.416C341.562 171.156 346.876 144.938 350.342 118.408C351.159 112.153 351.221 105.793 351.501 99.4758C351.639 96.3712 350.697 92.777 355.157 91.9404C359.63 91.1017 363.5 92.2405 365.899 96.395C368.498 100.894 367.881 105.901 367.012 110.567C360.379 146.161 353.323 181.676 346.796 217.288C343.295 236.389 339.51 255.483 338.323 274.925C338.121 278.23 336.728 283.131 340.472 284.455C344.637 285.928 346.294 280.832 348.295 278.106C356.119 267.449 361.407 255.305 367.486 243.655C389.988 200.532 411.859 157.076 434.623 114.093C451.251 82.6949 469.983 52.5588 493.379 25.5867C495.341 23.3252 497.082 20.8341 499.976 19.6212C502.893 18.3989 505.8 17.7363 508.128 20.684C510.353 23.5011 509.044 26.0016 507.18 28.3572C501.803 35.1502 496.216 41.7863 491.057 48.7402C463.243 86.2275 441.146 127.089 420.454 168.774C404.976 199.954 390.044 231.408 373.572 262.088C368.522 271.493 363.16 280.697 356.256 288.918C353.546 292.144 350.429 294.878 346.942 297.181C338.978 302.439 331.889 300.495 327.721 291.786C323.824 283.643 324.084 274.933 325.151 266.307C326.353 256.587 328.093 246.933 329.541 237.242C329.727 235.995 329.567 234.696 329.567 232.188C324.248 236.687 319.75 240.521 315.222 244.318C305.134 252.777 295.13 261.357 283.572 267.83C279.347 270.196 275.002 272.247 270.022 272.579C261.546 273.145 256.284 268.843 254.593 260.37C253.353 254.159 254.282 248.107 255.129 242.027C255.621 238.489 256.506 235.005 257.348 230.828C246.084 243.598 235.672 256.183 223.451 267.071C218.686 271.316 213.55 275.009 207.58 277.324C201.144 279.819 194.632 279.811 189.144 275.316C183.72 270.874 182.992 264.445 184.053 257.931C186.382 243.62 193.26 231.272 201.303 219.515C211.048 205.27 222.014 192.115 236.551 182.444C245.991 176.164 256.129 172.362 267.664 175.761C269.854 176.407 272.068 177.487 273.844 178.902C276.493 181.014 278.868 182.666 282.657 182.614C286.73 182.557 287.807 186.104 286.993 189.498C286.147 193.026 284.706 196.459 283.157 199.761C277.982 210.791 273.641 222.116 270.41 234.295ZM205.056 237.489C201.672 243.83 198.816 250.36 197.579 257.51C197.122 260.15 197.478 262.452 199.554 264.343C201.854 266.438 203.948 264.932 205.976 263.941C209.595 262.173 212.665 259.615 215.655 256.935C225.861 247.788 234.869 237.526 243.515 226.947C250.995 217.794 258.256 208.461 265.002 198.742C266.981 195.892 267.511 192.829 265.787 189.828C264.015 186.746 260.855 186.792 257.784 187.223C253.063 187.887 248.894 190.01 244.97 192.546C227.737 203.683 215.612 219.415 205.056 237.489Z" fill="black"/>
<path d="M431.612 248.927C431.572 236.212 435.752 224.923 439.856 213.698C444.667 200.54 450.77 187.952 458.314 176.101C459.843 173.699 461.344 171.238 463.814 169.73C466.514 168.083 469.684 167.115 471.983 169.939C474.28 172.761 476.396 176.293 473.366 179.878C461.391 194.051 455.208 211.155 448.915 228.16C446.677 234.207 445.262 240.602 445.303 247.178C445.344 253.805 448.069 255.518 453.629 251.864C463.602 245.31 471.541 236.49 479.37 227.616C492.951 212.222 505.155 195.798 515.994 178.359C516.864 176.959 517.869 175.554 519.1 174.482C521.755 172.17 524.797 171 528.292 172.639C531.744 174.258 531.371 177.41 531.319 180.417C531.274 183.004 530.08 185.234 529.08 187.513C522.587 202.316 516.407 217.241 513.906 233.34C513.052 238.835 511.442 244.993 516.898 249.084C522.046 252.945 526.966 249.121 531.311 246.887C544.757 239.975 555.851 229.775 567.161 219.937C569.258 218.113 569.753 215.35 570.625 212.839C577.704 192.453 588.682 174.679 605.621 160.96C609.925 157.474 614.776 154.982 620.175 153.475C633.929 149.634 643.909 158.701 641.93 173.191C640.182 185.985 632.345 195.305 622.817 203.281C612.286 212.097 600.512 219.059 588.225 225.076C583.203 227.536 580.807 230.861 581.341 236.436C581.904 242.306 583.922 247.089 589.9 249.321C596.334 251.723 602.74 250.612 609.046 248.96C625.759 244.58 640.097 235.396 654.271 226.011C668.311 216.716 681.79 206.657 694.143 195.16C695.436 193.957 696.621 192.166 698.809 193.083C701.026 194.011 701.894 195.986 702.293 198.213C703.004 202.177 700.789 204.824 698.236 207.363C684.091 221.434 667.835 232.744 651.073 243.378C638.798 251.165 626.03 257.967 611.962 261.998C604.691 264.081 597.389 265.099 589.818 263.337C578.796 260.771 571.382 254.583 568.372 243.429C567.822 241.393 568.013 239.076 566.229 237.029C561.147 239.896 557.093 244.135 552.43 247.536C543.263 254.221 534.174 260.93 522.493 262.782C510.277 264.719 501.209 257.419 500.638 244.971C500.296 237.5 500.99 230.086 502.069 222.395C499.137 222.496 498.382 224.538 497.204 225.963C486.688 238.684 476.213 251.44 462.676 261.202C459.41 263.557 455.938 265.508 452.08 266.697C441.844 269.851 434.614 265.749 432.206 255.334C431.762 253.413 431.801 251.38 431.612 248.927ZM594.493 207.968C602.428 203.627 609.66 198.255 616.212 192.089C621.931 186.707 627.049 180.665 628.611 172.604C629.703 166.969 626.945 164.718 621.462 166.489C618.895 167.318 616.672 168.819 614.59 170.5C602.646 180.142 594.358 192.474 588.302 206.422C587.808 207.558 586.923 208.818 588.072 210.26C590.436 211.098 591.992 209.192 594.493 207.968Z" fill="black"/>
<path d="M314.725 63C289.306 67.6952 264.31 72.2946 239.314 76.8914C234.575 77.7628 229.854 78.7605 225.089 79.4528C219.949 80.1994 216.47 82.6558 213.758 87.2758C202.435 106.569 192.858 126.72 184.003 147.208C161.664 198.893 141.929 251.572 124.377 305.072C123.496 307.754 122.386 310.365 121.311 312.979C120.166 315.766 118.327 317.368 115.082 316.347C112.036 315.389 109.634 314.003 109.611 310.214C109.593 307.182 109.889 304.265 110.832 301.373C128.656 246.716 149.523 193.22 172.127 140.385C179.007 124.306 186.251 108.392 193.895 92.66C194.832 90.732 195.602 88.723 196.687 86.1979C189.593 85.5773 183.243 87.4941 176.907 88.7938C132.703 97.8616 88.9914 108.735 46.8031 125.054C44.1476 126.082 41.4908 127.111 38.7753 125.007C34.4479 121.654 35.1333 116.311 40.4453 114.029C58.068 106.462 76.3034 100.656 94.8259 95.7871C140.963 83.66 187.297 72.3278 234.306 64.0917C265.702 58.5912 297.209 53.7158 328.712 48.8539C335.746 47.7684 342.93 47.2387 350.114 47.6355C351.964 47.7377 353.78 47.8253 355.446 48.7061C357.659 49.8757 359.267 51.6165 359.005 54.2215C358.761 56.636 356.708 57.2878 354.627 57.5544C344.747 58.82 334.86 60.0305 324.983 61.3232C321.692 61.754 318.426 62.3712 314.725 63Z" fill="black"/>
<circle cx="328.5" cy="363.5" r="10.5" fill="#000091"/>
<circle cx="389.5" cy="363.5" r="10.5" fill="#E1000F"/>
<circle cx="359.5" cy="363.5" r="10.5" fill="white"/>
</svg>
