<svg width="40" height="40" viewBox="0 0 40 40" fill="none" xmlns="http://www.w3.org/2000/svg">
<path d="M26.6668 35V31.6667C26.6668 29.8986 25.9645 28.2029 24.7142 26.9526C23.464 25.7024 21.7683 25 20.0002 25H10.0002C8.23205 25 6.53636 25.7024 5.28612 26.9526C4.03588 28.2029 3.3335 29.8986 3.3335 31.6667V35" stroke="#D1B17A" stroke-width="3.33333" stroke-linecap="round" stroke-linejoin="round"/>
<path d="M26.6665 5.21338C28.0961 5.584 29.3622 6.41882 30.266 7.58682C31.1698 8.75481 31.6602 10.1899 31.6602 11.6667C31.6602 13.1436 31.1698 14.5786 30.266 15.7466C29.3622 16.9146 28.0961 17.7494 26.6665 18.12" stroke="#D1B17A" stroke-width="3.33333" stroke-linecap="round" stroke-linejoin="round"/>
<path d="M36.6665 34.9999V31.6666C36.6654 30.1894 36.1738 28.7545 35.2688 27.5871C34.3638 26.4196 33.0967 25.5858 31.6665 25.2166" stroke="#D1B17A" stroke-width="3.33333" stroke-linecap="round" stroke-linejoin="round"/>
<path d="M15.0002 18.3333C18.6821 18.3333 21.6668 15.3486 21.6668 11.6667C21.6668 7.98477 18.6821 5 15.0002 5C11.3183 5 8.3335 7.98477 8.3335 11.6667C8.3335 15.3486 11.3183 18.3333 15.0002 18.3333Z" stroke="#D1B17A" stroke-width="3.33333" stroke-linecap="round" stroke-linejoin="round"/>
</svg>
