<svg width="40" height="40" viewBox="0 0 40 40" fill="none" xmlns="http://www.w3.org/2000/svg">
<path d="M19.2086 3.82499C19.2816 3.67742 19.3944 3.55321 19.5343 3.46636C19.6742 3.37952 19.8356 3.3335 20.0002 3.3335C20.1649 3.3335 20.3263 3.37952 20.4661 3.46636C20.606 3.55321 20.7189 3.67742 20.7919 3.82499L24.6419 11.6233C24.8955 12.1366 25.2699 12.5807 25.7329 12.9174C26.196 13.2541 26.7338 13.4735 27.3002 13.5567L35.9102 14.8167C36.0734 14.8403 36.2266 14.9091 36.3527 15.0153C36.4788 15.1215 36.5726 15.2609 36.6236 15.4177C36.6746 15.5744 36.6807 15.7423 36.6412 15.9024C36.6017 16.0624 36.5183 16.2082 36.4002 16.3233L30.1736 22.3867C29.7629 22.7868 29.4557 23.2808 29.2783 23.826C29.1009 24.3713 29.0587 24.9515 29.1552 25.5167L30.6252 34.0833C30.654 34.2464 30.6364 34.4143 30.5744 34.5678C30.5124 34.7213 30.4085 34.8543 30.2745 34.9516C30.1405 35.049 29.9819 35.1067 29.8167 35.1181C29.6515 35.1296 29.4864 35.0945 29.3402 35.0167L21.6436 30.97C21.1364 30.7037 20.5722 30.5646 19.9994 30.5646C19.4266 30.5646 18.8624 30.7037 18.3552 30.97L10.6602 35.0167C10.5141 35.094 10.3492 35.1288 10.1843 35.1171C10.0194 35.1054 9.8611 35.0476 9.72739 34.9503C9.59369 34.8531 9.48995 34.7203 9.42799 34.567C9.36603 34.4137 9.34833 34.2462 9.3769 34.0833L10.8452 25.5183C10.9422 24.9529 10.9002 24.3723 10.7228 23.8267C10.5454 23.2811 10.2379 22.7869 9.8269 22.3867L3.60023 16.325C3.48122 16.21 3.39689 16.064 3.35684 15.9034C3.31679 15.7429 3.32263 15.5743 3.3737 15.417C3.42477 15.2596 3.51901 15.1197 3.64569 15.0133C3.77238 14.9069 3.92641 14.8381 4.09023 14.815L12.6986 13.5567C13.2657 13.4742 13.8042 13.2551 14.2679 12.9183C14.7315 12.5815 15.1064 12.1371 15.3602 11.6233L19.2086 3.82499Z" stroke="#D1B17A" stroke-width="3.33333" stroke-linecap="round" stroke-linejoin="round"/>
</svg>
