<svg width="406" height="157" viewBox="0 0 406 157" fill="none" xmlns="http://www.w3.org/2000/svg">
<path d="M5.85659 43.1428C5.85659 43.1428 55.2066 37.5728 60.7866 34.3828C66.3666 31.1928 71.9266 26.4228 80.2866 24.8328C88.6466 23.2428 144.767 13.6928 144.767 13.6928C144.767 13.6928 151.927 11.7028 162.277 19.2628C172.627 26.8228 195.317 51.1028 201.677 50.3128C208.047 49.5128 211.227 40.7628 209.237 36.7828C207.247 32.8028 168.567 4.0328 161.877 2.1528C152.347 -0.527197 139.987 -0.237198 124.857 2.1528C109.737 4.5428 8.63659 25.4928 8.63659 25.4928C8.63659 25.4928 -4.49341 31.6128 5.84659 43.1528L5.85659 43.1428Z" fill="white" stroke="#1D1D1B" stroke-width="0.5" stroke-miterlimit="10"/>
<g style="mix-blend-mode:multiply">
<path d="M205.267 38.7627C205.267 38.7627 204.957 44.9127 201.287 44.3327C196.317 43.5527 165.467 10.5027 155.117 12.0927C155.117 12.0927 163.647 14.8027 173.577 23.7327C180.087 29.5927 207.997 61.5827 205.267 38.7627Z" fill="#706F6F"/>
</g>
<path d="M271.817 67.6527L362.357 37.8727C362.357 37.8727 384.487 32.2427 387.707 33.8527C390.927 35.4627 405.417 64.4327 405.417 67.6527C405.417 70.8727 402.997 81.6627 399.787 82.5427C397.457 83.1827 394.457 82.6527 392.947 78.3327C391.537 74.3127 386.107 46.6027 380.477 46.8627C374.847 47.1227 329.777 62.8127 329.777 62.8127C329.777 62.8127 316.497 69.2527 310.867 74.0827C305.237 78.9127 278.677 85.3527 278.677 85.3527C278.677 85.3527 269.017 77.7027 271.837 67.6427L271.817 67.6527Z" fill="white" stroke="#1D1D1B" stroke-width="0.5" stroke-miterlimit="10"/>
<g style="mix-blend-mode:multiply">
<path d="M278.367 68.1027C278.367 68.1027 380.637 32.9127 386.217 36.1127C386.217 36.1127 368.017 38.6027 344.457 47.9927C320.897 57.3827 278.367 70.0227 278.367 70.0227V68.1027Z" fill="#706F6F"/>
</g>
<g style="mix-blend-mode:multiply">
<path d="M382.387 46.0628C382.387 46.0628 385.647 46.0628 387.367 49.5128C389.087 52.9628 397.137 74.2228 397.137 74.2228C397.137 74.2228 397.907 79.2028 402.307 71.5428C402.307 71.5428 399.237 81.1028 396.947 78.3328C394.657 75.5628 387.177 52.0028 387.177 52.0028C387.177 52.0028 384.307 45.2628 382.387 46.0628Z" fill="#706F6F"/>
</g>
<path d="M282.336 68.8129C282.096 65.4029 272.766 63.5929 269.626 62.4129C266.486 61.2329 253.926 64.3729 253.926 64.3729C241.756 61.2329 199.376 55.3429 175.046 55.3429C150.716 55.3429 142.476 66.7229 139.726 66.3329C136.976 65.9429 122.456 65.5529 116.176 64.3729C109.896 63.1929 111.076 50.2429 76.9264 37.8929C42.7864 25.5429 8.63645 25.4729 8.63645 25.4729C-4.71355 30.1329 1.87645 43.9629 1.87645 43.9629L3.92646 50.3129C8.24646 52.3429 7.06645 60.8329 8.63645 73.3929C10.2065 85.9529 16.0965 102.043 22.7665 111.853C29.4365 121.663 54.5564 132.653 67.1164 133.043C79.6764 133.433 90.6665 131.083 98.9065 117.733C107.146 104.393 115.786 80.8429 115.786 80.8429L125.986 82.4129C125.986 82.4129 128.896 82.7229 131.336 85.5029C133.776 88.2829 135.766 93.5329 138.936 102.813C146.496 124.913 164.056 142.063 164.056 142.063C164.056 142.063 169.656 149.493 197.496 154.723C220.576 159.063 240.196 152.263 240.196 152.263C257.916 145.093 261.826 107.303 261.826 107.303C261.826 107.303 263.656 94.0029 269.636 90.6529C277.006 86.5129 277.906 86.2129 282.346 85.3329C285.956 84.6229 282.586 72.2029 282.346 68.7929L282.336 68.8129ZM87.5265 119.323C78.1065 124.423 55.3465 126.383 41.2165 115.403C27.0865 104.413 20.4165 85.1829 18.4565 62.4229C16.4965 39.6629 25.5565 37.1929 25.5565 37.1929C25.5565 37.1929 40.4365 36.5229 59.6665 41.2229C78.8965 45.9329 100.086 59.2729 100.486 67.9129C100.876 76.5429 96.9564 114.223 87.5364 119.323H87.5265ZM241.756 143.653C232.726 147.973 220.286 148.363 209.826 147.573C199.366 146.793 172.286 146.003 162.476 116.173C162.476 116.173 159.726 102.043 157.376 98.9029C155.026 95.7629 147.956 84.4229 147.956 80.4729C147.956 72.2429 155.106 67.5029 155.106 67.5029C155.106 67.5029 163.266 62.4029 173.856 62.4029C184.456 62.4029 238.606 65.1529 246.066 75.3529C253.526 85.5529 253.126 97.3329 254.306 106.753C255.486 116.173 250.776 139.323 241.746 143.643L241.756 143.653Z" fill="white" stroke="#1D1D1B" stroke-width="0.5" stroke-miterlimit="10"/>
</svg>
