<svg width="596" height="842" viewBox="0 0 596 842" fill="none" xmlns="http://www.w3.org/2000/svg">
<path d="M108.83 155.14C108.83 155.14 158.18 149.57 163.76 146.38C169.34 143.19 174.9 138.42 183.26 136.83C191.62 135.24 247.74 125.69 247.74 125.69C247.74 125.69 254.9 123.7 265.25 131.26C275.6 138.82 298.29 163.1 304.65 162.31C311.02 161.51 314.2 152.76 312.21 148.78C310.22 144.8 271.54 116.03 264.85 114.15C255.32 111.47 242.96 111.76 227.83 114.15C212.71 116.54 111.61 137.49 111.61 137.49C111.61 137.49 98.4802 143.61 108.82 155.15L108.83 155.14Z" fill="white" stroke="#1D1D1B" stroke-width="0.5" stroke-miterlimit="10"/>
<g style="mix-blend-mode:multiply">
<path d="M308.24 150.76C308.24 150.76 307.93 156.91 304.26 156.33C299.29 155.55 268.44 122.5 258.09 124.09C258.09 124.09 266.62 126.8 276.55 135.73C283.06 141.59 310.97 173.58 308.24 150.76Z" fill="#706F6F"/>
</g>
<path d="M374.79 179.65L465.33 149.87C465.33 149.87 487.46 144.24 490.68 145.85C493.9 147.46 508.39 176.43 508.39 179.65C508.39 182.87 505.97 193.66 502.76 194.54C500.43 195.18 497.43 194.65 495.92 190.33C494.51 186.31 489.08 158.6 483.45 158.86C477.82 159.12 432.75 174.81 432.75 174.81C432.75 174.81 419.47 181.25 413.84 186.08C408.21 190.91 381.65 197.35 381.65 197.35C381.65 197.35 371.99 189.7 374.81 179.64L374.79 179.65Z" fill="white" stroke="#1D1D1B" stroke-width="0.5" stroke-miterlimit="10"/>
<g style="mix-blend-mode:multiply">
<path d="M381.34 180.1C381.34 180.1 483.61 144.91 489.19 148.11C489.19 148.11 470.99 150.6 447.43 159.99C423.87 169.38 381.34 182.02 381.34 182.02V180.1Z" fill="#706F6F"/>
</g>
<g style="mix-blend-mode:multiply">
<path d="M485.36 158.06C485.36 158.06 488.62 158.06 490.34 161.51C492.06 164.96 500.11 186.22 500.11 186.22C500.11 186.22 500.88 191.2 505.28 183.54C505.28 183.54 502.21 193.1 499.92 190.33C497.63 187.56 490.15 164 490.15 164C490.15 164 487.28 157.26 485.36 158.06Z" fill="#706F6F"/>
</g>
<path d="M385.31 180.81C385.07 177.4 375.74 175.59 372.6 174.41C369.46 173.23 356.9 176.37 356.9 176.37C344.73 173.23 302.35 167.34 278.02 167.34C253.69 167.34 245.45 178.72 242.7 178.33C239.95 177.94 225.43 177.55 219.15 176.37C212.87 175.19 214.05 162.24 179.9 149.89C145.76 137.54 111.61 137.47 111.61 137.47C98.2601 142.13 104.85 155.96 104.85 155.96L106.9 162.31C111.22 164.34 110.04 172.83 111.61 185.39C113.18 197.95 119.07 214.04 125.74 223.85C132.41 233.66 157.53 244.65 170.09 245.04C182.65 245.43 193.64 243.08 201.88 229.73C210.12 216.39 218.76 192.84 218.76 192.84L228.96 194.41C228.96 194.41 231.87 194.72 234.31 197.5C236.75 200.28 238.74 205.53 241.91 214.81C249.47 236.91 267.03 254.06 267.03 254.06C267.03 254.06 272.63 261.49 300.47 266.72C323.55 271.06 343.17 264.26 343.17 264.26C360.89 257.09 364.8 219.3 364.8 219.3C364.8 219.3 366.63 206 372.61 202.65C379.98 198.51 380.88 198.21 385.32 197.33C388.93 196.62 385.56 184.2 385.32 180.79L385.31 180.81ZM190.5 231.32C181.08 236.42 158.32 238.38 144.19 227.4C130.06 216.41 123.39 197.18 121.43 174.42C119.47 151.66 128.53 149.19 128.53 149.19C128.53 149.19 143.41 148.52 162.64 153.22C181.87 157.93 203.06 171.27 203.46 179.91C203.85 188.54 199.93 226.22 190.51 231.32H190.5ZM344.73 255.65C335.7 259.97 323.26 260.36 312.8 259.57C302.34 258.79 275.26 258 265.45 228.17C265.45 228.17 262.7 214.04 260.35 210.9C258 207.76 250.93 196.42 250.93 192.47C250.93 184.24 258.08 179.5 258.08 179.5C258.08 179.5 266.24 174.4 276.83 174.4C287.43 174.4 341.58 177.15 349.04 187.35C356.5 197.55 356.1 209.33 357.28 218.75C358.46 228.17 353.75 251.32 344.72 255.64L344.73 255.65Z" fill="white" stroke="#1D1D1B" stroke-width="0.5" stroke-miterlimit="10"/>
<g clip-path="url(#clip0_4_405)">
<path d="M365.147 190.397C365.085 190.673 365.012 190.932 365.015 191.201C365.017 191.419 365.09 191.469 365.296 191.382C365.673 191.222 365.984 190.966 366.292 190.71C366.761 190.318 367.208 189.903 367.654 189.486C367.826 189.326 367.834 189.116 367.873 188.918C368.08 187.865 368.3 186.813 368.442 185.749C368.476 185.498 368.479 185.243 368.49 184.99C368.496 184.865 368.457 184.721 368.641 184.687C368.825 184.654 368.985 184.699 369.084 184.866C369.191 185.047 369.165 185.247 369.13 185.434C368.856 186.862 368.565 188.286 368.296 189.715C368.152 190.481 367.996 191.247 367.947 192.026C367.939 192.159 367.881 192.356 368.036 192.409C368.207 192.468 368.276 192.263 368.358 192.154C368.681 191.727 368.899 191.239 369.149 190.772C370.077 189.043 370.978 187.3 371.917 185.576C372.602 184.317 373.374 183.108 374.339 182.026C374.42 181.935 374.492 181.836 374.611 181.787C374.731 181.738 374.851 181.711 374.947 181.83C375.039 181.943 374.985 182.043 374.908 182.137C374.686 182.41 374.456 182.676 374.243 182.955C373.097 184.458 372.186 186.097 371.333 187.769C370.695 189.02 370.079 190.281 369.4 191.512C369.192 191.889 368.971 192.258 368.686 192.588C368.575 192.717 368.446 192.827 368.302 192.919C367.974 193.13 367.682 193.052 367.51 192.703C367.349 192.376 367.36 192.027 367.404 191.681C367.454 191.291 367.525 190.904 367.585 190.515C367.593 190.465 367.586 190.413 367.586 190.312C367.367 190.493 367.181 190.647 366.995 190.799C366.579 191.138 366.166 191.482 365.69 191.742C365.516 191.837 365.337 191.919 365.131 191.932C364.782 191.955 364.565 191.782 364.495 191.443C364.444 191.194 364.483 190.951 364.517 190.707C364.538 190.565 364.574 190.425 364.609 190.258C364.145 190.77 363.715 191.275 363.212 191.711C363.015 191.882 362.803 192.03 362.557 192.123C362.292 192.223 362.024 192.222 361.797 192.042C361.574 191.864 361.544 191.606 361.587 191.345C361.683 190.771 361.967 190.276 362.299 189.804C362.7 189.233 363.152 188.705 363.752 188.317C364.141 188.065 364.559 187.913 365.034 188.049C365.124 188.075 365.216 188.118 365.289 188.175C365.398 188.26 365.496 188.326 365.652 188.324C365.82 188.322 365.865 188.464 365.831 188.6C365.796 188.742 365.737 188.879 365.673 189.012C365.46 189.454 365.281 189.908 365.147 190.397ZM362.453 190.525C362.314 190.779 362.196 191.041 362.145 191.328C362.126 191.434 362.141 191.526 362.226 191.602C362.321 191.686 362.408 191.626 362.491 191.586C362.64 191.515 362.767 191.412 362.89 191.305C363.311 190.938 363.682 190.526 364.039 190.102C364.347 189.735 364.646 189.361 364.924 188.971C365.006 188.857 365.028 188.734 364.957 188.613C364.884 188.49 364.753 188.492 364.627 188.509C364.432 188.536 364.26 188.621 364.099 188.722C363.388 189.169 362.888 189.8 362.453 190.525Z" fill="black"/>
<path d="M371.792 190.984C371.791 190.474 371.963 190.021 372.132 189.571C372.331 189.043 372.582 188.538 372.893 188.063C372.956 187.966 373.018 187.868 373.12 187.807C373.231 187.741 373.362 187.702 373.457 187.816C373.551 187.929 373.639 188.07 373.514 188.214C373.02 188.783 372.765 189.469 372.506 190.151C372.414 190.393 372.355 190.65 372.357 190.913C372.359 191.179 372.471 191.248 372.7 191.101C373.111 190.839 373.439 190.485 373.761 190.129C374.321 189.511 374.824 188.853 375.271 188.153C375.307 188.097 375.348 188.041 375.399 187.998C375.509 187.905 375.634 187.858 375.778 187.924C375.92 187.989 375.905 188.115 375.903 188.236C375.901 188.34 375.852 188.429 375.81 188.52C375.543 189.114 375.288 189.713 375.185 190.358C375.15 190.579 375.083 190.826 375.308 190.99C375.521 191.145 375.723 190.991 375.902 190.902C376.457 190.625 376.914 190.215 377.38 189.821C377.467 189.748 377.487 189.637 377.523 189.536C377.815 188.719 378.267 188.006 378.966 187.456C379.143 187.316 379.343 187.216 379.566 187.155C380.133 187.001 380.544 187.365 380.463 187.946C380.39 188.459 380.067 188.833 379.675 189.153C379.24 189.506 378.755 189.786 378.249 190.027C378.042 190.126 377.943 190.259 377.965 190.483C377.988 190.718 378.071 190.91 378.318 190.999C378.583 191.096 378.847 191.051 379.107 190.985C379.796 190.809 380.387 190.441 380.971 190.065C381.55 189.692 382.106 189.288 382.615 188.827C382.668 188.779 382.717 188.707 382.807 188.744C382.899 188.781 382.934 188.86 382.951 188.95C382.98 189.109 382.889 189.215 382.784 189.317C382.201 189.881 381.53 190.335 380.839 190.761C380.333 191.073 379.807 191.346 379.227 191.508C378.927 191.591 378.626 191.632 378.314 191.562C377.86 191.459 377.554 191.21 377.43 190.763C377.408 190.681 377.415 190.589 377.342 190.506C377.132 190.621 376.965 190.791 376.773 190.928C376.395 191.196 376.02 191.465 375.539 191.539C375.035 191.617 374.662 191.324 374.638 190.825C374.624 190.525 374.653 190.228 374.697 189.919C374.576 189.924 374.545 190.005 374.496 190.063C374.063 190.573 373.631 191.084 373.073 191.476C372.938 191.57 372.795 191.649 372.636 191.696C372.214 191.823 371.916 191.658 371.817 191.241C371.799 191.164 371.8 191.082 371.792 190.984ZM378.507 189.341C378.834 189.167 379.132 188.951 379.402 188.704C379.638 188.488 379.849 188.246 379.913 187.923C379.958 187.697 379.845 187.606 379.619 187.677C379.513 187.711 379.421 187.771 379.335 187.838C378.843 188.225 378.501 188.719 378.252 189.279C378.231 189.324 378.195 189.375 378.242 189.433C378.34 189.466 378.404 189.39 378.507 189.341Z" fill="black"/>
<path d="M366.974 183.527C365.926 183.715 364.896 183.9 363.865 184.084C363.67 184.119 363.475 184.159 363.279 184.187C363.067 184.217 362.923 184.315 362.812 184.5C362.345 185.274 361.95 186.082 361.585 186.904C360.664 188.977 359.851 191.09 359.127 193.236C359.091 193.343 359.045 193.448 359.001 193.553C358.953 193.664 358.878 193.729 358.744 193.688C358.618 193.649 358.519 193.594 358.518 193.442C358.518 193.32 358.53 193.203 358.569 193.087C359.303 190.895 360.164 188.75 361.095 186.63C361.379 185.986 361.678 185.347 361.993 184.716C362.031 184.639 362.063 184.558 362.108 184.457C361.815 184.432 361.554 184.509 361.293 184.561C359.47 184.925 357.668 185.361 355.929 186.016C355.82 186.057 355.71 186.098 355.598 186.014C355.42 185.879 355.448 185.665 355.667 185.573C356.394 185.27 357.145 185.037 357.909 184.842C359.811 184.355 361.721 183.901 363.659 183.571C364.953 183.35 366.252 183.154 367.55 182.959C367.84 182.916 368.137 182.895 368.433 182.911C368.509 182.915 368.584 182.918 368.653 182.953C368.744 183 368.81 183.07 368.799 183.175C368.789 183.272 368.705 183.298 368.619 183.308C368.211 183.359 367.804 183.408 367.397 183.46C367.261 183.477 367.126 183.502 366.974 183.527Z" fill="black"/>
</g>
<ellipse cx="367.542" cy="195.579" rx="0.432846" ry="0.421123" fill="#000091"/>
<ellipse cx="370.056" cy="195.579" rx="0.432846" ry="0.421123" fill="#E1000F"/>
<ellipse cx="368.82" cy="195.579" rx="0.432846" ry="0.421123" fill="white"/>
<defs>
<clipPath id="clip0_4_405">
<rect width="31" height="12.8342" fill="white" transform="translate(354 181)"/>
</clipPath>
</defs>
</svg>
